<?xml version="1.0" encoding="UTF-8"?>
<svg width="400" height="300" viewBox="0 0 400 300" fill="none" xmlns="http://www.w3.org/2000/svg">
  <!-- Background -->
  <rect width="400" height="300" fill="#1E3A8A"/>
  
  <!-- Logo Circle -->
  <circle cx="200" cy="120" r="40" fill="#3B82F6" stroke="#60A5FA" stroke-width="3"/>
  
  <!-- Handshake/Connection Icon -->
  <path d="M180 105 L185 100 L195 100 L200 105 L205 100 L215 100 L220 105 L215 110 L210 115 L205 120 L200 125 L195 120 L190 115 L185 110 Z" fill="white"/>
  <path d="M185 125 L190 130 L195 135 L200 140 L205 135 L210 130 L215 125" stroke="white" stroke-width="2" fill="none"/>
  
  <!-- App Name -->
  <text x="200" y="180" font-family="system-ui, -apple-system, sans-serif" font-size="32" font-weight="bold" fill="white" text-anchor="middle">
    Skill Swap
  </text>
  
  <!-- Tagline -->
  <text x="200" y="205" font-family="system-ui, -apple-system, sans-serif" font-size="14" fill="#93C5FD" text-anchor="middle">
    Share Skills • Learn Together • Grow Faster
  </text>
  
  <!-- Decorative Elements -->
  <circle cx="80" cy="80" r="3" fill="#60A5FA" opacity="0.6"/>
  <circle cx="320" cy="90" r="2" fill="#93C5FD" opacity="0.8"/>
  <circle cx="100" cy="220" r="2" fill="#DBEAFE" opacity="0.7"/>
  <circle cx="300" cy="200" r="3" fill="#60A5FA" opacity="0.5"/>
  
  <!-- Connection Lines -->
  <path d="M80 80 L120 100" stroke="#60A5FA" stroke-width="1" opacity="0.4"/>
  <path d="M280 100 L320 90" stroke="#93C5FD" stroke-width="1" opacity="0.4"/>
  <path d="M100 220 L140 200" stroke="#DBEAFE" stroke-width="1" opacity="0.4"/>
  <path d="M260 200 L300 200" stroke="#60A5FA" stroke-width="1" opacity="0.4"/>
</svg>